<svg width="18" height="16" viewBox="0 0 18 16" fill="none" xmlns="http://www.w3.org/2000/svg">
<path d="M5.96359 12.9882C5.90126 13.0455 5.85253 13.1128 5.82018 13.1864C5.78783 13.26 5.77251 13.3384 5.77507 13.4172C5.77764 13.4959 5.79805 13.5734 5.83514 13.6453C5.87222 13.7172 5.92526 13.782 5.99122 13.8361C6.05719 13.8902 6.13478 13.9325 6.21958 13.9606C6.30437 13.9887 6.39471 14.002 6.48542 13.9998C6.57614 13.9975 6.66547 13.9798 6.7483 13.9476C6.83113 13.9154 6.90584 13.8694 6.96817 13.8122L12.8409 8.41533C12.9622 8.30399 13.0298 8.15659 13.0298 8.00337C13.0298 7.85015 12.9622 7.70275 12.8409 7.59141L6.96817 2.19398C6.90625 2.13548 6.83155 2.08824 6.74842 2.055C6.66528 2.02177 6.57537 2.0032 6.4839 2.00038C6.39242 1.99756 6.30122 2.01054 6.21557 2.03857C6.12993 2.0666 6.05156 2.10912 5.98501 2.16366C5.91846 2.2182 5.86506 2.28368 5.82791 2.35628C5.79076 2.42888 5.77061 2.50717 5.76862 2.58659C5.76662 2.66601 5.78283 2.74499 5.8163 2.81893C5.84977 2.89286 5.89984 2.96029 5.96359 3.0173L11.3886 8.00337L5.96359 12.9882Z" fill="#2C2C2C"/>
</svg>
