<svg width="10" height="9" viewBox="0 0 10 9" fill="none" xmlns="http://www.w3.org/2000/svg">
<path d="M8.7037 1.11111H7.51944L6.94444 0.247223C6.89363 0.171054 6.82477 0.108627 6.744 0.0654952C6.66323 0.0223636 6.57305 -0.000135113 6.48148 6.10436e-07H3.51852C3.42695 -0.000135113 3.33677 0.0223636 3.256 0.0654952C3.17523 0.108627 3.10637 0.171054 3.05556 0.247223L2.48009 1.11111H1.2963C0.952497 1.11111 0.622779 1.24769 0.379676 1.49079C0.136574 1.73389 0 2.06361 0 2.40741V7.59259C0 7.93639 0.136574 8.26611 0.379676 8.50921C0.622779 8.75232 0.952497 8.88889 1.2963 8.88889H8.7037C8.87394 8.88889 9.0425 8.85536 9.19977 8.79021C9.35705 8.72507 9.49995 8.62959 9.62032 8.50921C9.7407 8.38884 9.83618 8.24594 9.90133 8.08866C9.96647 7.93139 10 7.76283 10 7.59259V2.40741C10 2.23718 9.96647 2.06861 9.90133 1.91134C9.83618 1.75406 9.7407 1.61116 9.62032 1.49079C9.49995 1.37042 9.35705 1.27493 9.19977 1.20979C9.0425 1.14464 8.87394 1.11111 8.7037 1.11111ZM8.88889 7.59259C8.88889 7.64171 8.86938 7.68881 8.83465 7.72354C8.79992 7.75827 8.75282 7.77778 8.7037 7.77778H1.2963C1.24718 7.77778 1.20008 7.75827 1.16535 7.72354C1.13062 7.68881 1.11111 7.64171 1.11111 7.59259V2.40741C1.11111 2.35829 1.13062 2.31119 1.16535 2.27646C1.20008 2.24173 1.24718 2.22222 1.2963 2.22222H2.77778C2.86934 2.22236 2.95952 2.19986 3.04029 2.15673C3.12106 2.1136 3.18992 2.05117 3.24074 1.975L3.81574 1.11111H6.1838L6.75926 1.975C6.81008 2.05117 6.87894 2.1136 6.95971 2.15673C7.04048 2.19986 7.13066 2.22236 7.22222 2.22222H8.7037C8.75282 2.22222 8.79992 2.24173 8.83465 2.27646C8.86938 2.31119 8.88889 2.35829 8.88889 2.40741V7.59259ZM5 2.59259C4.56049 2.59259 4.13084 2.72292 3.7654 2.96711C3.39996 3.21129 3.11513 3.55835 2.94693 3.96441C2.77874 4.37047 2.73473 4.81728 2.82048 5.24835C2.90622 5.67942 3.11787 6.07538 3.42865 6.38616C3.73943 6.69695 4.1354 6.90859 4.56647 6.99434C4.99753 7.08008 5.44435 7.03608 5.85041 6.86788C6.25647 6.69969 6.60353 6.41486 6.84771 6.04942C7.09189 5.68397 7.22222 5.25433 7.22222 4.81482C7.22161 4.22563 6.98729 3.66076 6.57067 3.24414C6.15406 2.82753 5.58918 2.59321 5 2.59259ZM5 5.92593C4.78024 5.92593 4.56542 5.86076 4.3827 5.73867C4.19998 5.61658 4.05756 5.44305 3.97347 5.24002C3.88937 5.03699 3.86737 4.81358 3.91024 4.59805C3.95311 4.38251 4.05893 4.18453 4.21433 4.02914C4.36972 3.87375 4.5677 3.76793 4.78323 3.72505C4.99877 3.68218 5.22217 3.70419 5.4252 3.78828C5.62823 3.87238 5.80176 4.01479 5.92386 4.19752C6.04595 4.38024 6.11111 4.59506 6.11111 4.81482C6.11111 5.1095 5.99405 5.39212 5.78567 5.60049C5.5773 5.80886 5.29468 5.92593 5 5.92593Z" fill="#929292"/>
</svg>
