<svg width="39" height="39" viewBox="0 0 39 39" fill="none" xmlns="http://www.w3.org/2000/svg">
<path d="M17.9043 23.3107L24.4693 19.1187C24.9439 18.8023 25.1812 18.3541 25.1812 17.774C25.1812 17.194 24.9439 16.7458 24.4693 16.4294L17.9043 12.2373C17.377 11.8945 16.8365 11.8682 16.2829 12.1582C15.7292 12.4482 15.4524 12.9096 15.4524 13.5424V22.0057C15.4524 22.6384 15.7292 23.0998 16.2829 23.3898C16.8365 23.6799 17.377 23.6535 17.9043 23.3107ZM6.75179 30.4294C5.88174 30.4294 5.13718 30.1199 4.51812 29.5008C3.89906 28.8817 3.58901 28.1367 3.58795 27.2655V8.28249C3.58795 7.41244 3.89801 6.66788 4.51812 6.04882C5.13823 5.42976 5.88279 5.11971 6.75179 5.11865H32.0625C32.9326 5.11865 33.6777 5.42871 34.2978 6.04882C34.9179 6.66893 35.2274 7.41349 35.2264 8.28249V27.2655C35.2264 28.1356 34.9168 28.8807 34.2978 29.5008C33.6787 30.1209 32.9336 30.4304 32.0625 30.4294H25.7348V32.0113C25.7348 32.4595 25.583 32.8355 25.2793 33.1392C24.9755 33.4429 24.6001 33.5943 24.1529 33.5932H14.6614C14.2132 33.5932 13.8377 33.4414 13.5351 33.1376C13.2324 32.8339 13.0805 32.4585 13.0795 32.0113V30.4294H6.75179ZM6.75179 27.2655H32.0625V8.28249H6.75179V27.2655Z" fill="#7FB185"/>
</svg>
