<svg width="20" height="20" viewBox="0 0 20 20" fill="none" xmlns="http://www.w3.org/2000/svg">
<path d="M9.1665 3.3335H3.33317C2.89114 3.3335 2.46722 3.50909 2.15466 3.82165C1.8421 4.13421 1.6665 4.55814 1.6665 5.00016V16.6668C1.6665 17.1089 1.8421 17.5328 2.15466 17.8453C2.46722 18.1579 2.89114 18.3335 3.33317 18.3335H14.9998C15.4419 18.3335 15.8658 18.1579 16.1783 17.8453C16.4909 17.5328 16.6665 17.1089 16.6665 16.6668V10.8335" stroke="black" stroke-linecap="round" stroke-linejoin="round"/>
<path d="M15.4165 2.0832C15.748 1.75168 16.1977 1.56543 16.6665 1.56543C17.1353 1.56543 17.585 1.75168 17.9165 2.0832C18.248 2.41472 18.4343 2.86436 18.4343 3.3332C18.4343 3.80204 18.248 4.25168 17.9165 4.5832L9.99984 12.4999L6.6665 13.3332L7.49984 9.99986L15.4165 2.0832Z" stroke="black" stroke-linecap="round" stroke-linejoin="round"/>
</svg>
