<svg width="39" height="39" viewBox="0 0 39 39" fill="none" xmlns="http://www.w3.org/2000/svg">
<path d="M21.4004 5.11862C13.3484 4.89715 6.7518 11.3672 6.7518 19.3559H3.92016C3.20829 19.3559 2.86027 20.2101 3.36649 20.7005L7.78005 25.1299C8.09643 25.4463 8.58683 25.4463 8.90321 25.1299L13.3168 20.7005C13.4261 20.589 13.4999 20.4476 13.529 20.2942C13.5581 20.1408 13.5412 19.9822 13.4803 19.8384C13.4194 19.6946 13.3172 19.572 13.1868 19.4862C13.0564 19.4003 12.9034 19.355 12.7473 19.3559H9.91564C9.91564 13.1864 14.9461 8.20336 21.1473 8.28246C27.032 8.36156 31.9834 13.313 32.0625 19.1977C32.1416 25.383 27.1586 30.4293 20.9891 30.4293C18.4422 30.4293 16.0851 29.5593 14.2185 28.0881C13.9155 27.8494 13.5353 27.7304 13.1503 27.7538C12.7653 27.7771 12.4023 27.9411 12.1303 28.2147C11.4659 28.8791 11.5134 30.0022 12.2569 30.5717C14.7423 32.5372 17.8205 33.6023 20.9891 33.5932C28.9778 33.5932 35.4478 26.9966 35.2264 18.9446C35.0207 11.5254 28.8196 5.32427 21.4004 5.11862ZM20.5936 13.0282C19.945 13.0282 19.4072 13.5661 19.4072 14.2147V20.0361C19.4072 20.5898 19.7077 21.1118 20.1823 21.3966L25.1179 24.3231C25.6874 24.6553 26.4151 24.4655 26.7473 23.9118C27.0795 23.3423 26.8897 22.6147 26.336 22.2825L21.78 19.5774V14.1988C21.78 13.5661 21.2422 13.0282 20.5936 13.0282Z" fill="#7FB185"/>
</svg>
