<svg width="34" height="32" viewBox="0 0 34 32" fill="none" xmlns="http://www.w3.org/2000/svg">
<path d="M12.4 31.0407C12.9523 31.0407 13.4 30.593 13.4 30.0407V21.2407C13.4 20.6884 13.8477 20.2407 14.4 20.2407H19.6C20.1523 20.2407 20.6 20.6884 20.6 21.2407V30.0407C20.6 30.593 21.0477 31.0407 21.6 31.0407H28.6C29.1523 31.0407 29.6 30.593 29.6 30.0407V17.6407C29.6 17.0884 30.0477 16.6407 30.6 16.6407H32.394C33.3105 16.6407 33.7442 15.5105 33.063 14.8974L17.669 1.04274C17.2887 0.700466 16.7113 0.700468 16.331 1.04274L0.936992 14.8974C0.255774 15.5105 0.689474 16.6407 1.60596 16.6407H3.4C3.95228 16.6407 4.4 17.0884 4.4 17.6407V30.0407C4.4 30.593 4.84771 31.0407 5.4 31.0407H12.4Z" fill="#609A79"/>
</svg>
