<svg width="22" height="22" viewBox="0 0 22 22" fill="none" xmlns="http://www.w3.org/2000/svg">
<path d="M20.1668 11H14.6668L12.8335 13.75H9.16683L7.3335 11H1.8335" stroke="white" stroke-width="2" stroke-linecap="round" stroke-linejoin="round"/>
<path d="M4.996 4.684L1.8335 10.9998V16.4998C1.8335 16.9861 2.02665 17.4524 2.37047 17.7962C2.71428 18.14 3.1806 18.3332 3.66683 18.3332H18.3335C18.8197 18.3332 19.286 18.14 19.6299 17.7962C19.9737 17.4524 20.1668 16.9861 20.1668 16.4998V10.9998L17.0043 4.684C16.8525 4.37856 16.6186 4.12151 16.3287 3.94176C16.0388 3.76201 15.7046 3.66668 15.3635 3.6665H6.63683C6.29575 3.66668 5.96149 3.76201 5.67162 3.94176C5.38175 4.12151 5.14778 4.37856 4.996 4.684Z" stroke="white" stroke-width="2" stroke-linecap="round" stroke-linejoin="round"/>
</svg>
