<svg width="24" height="24" viewBox="0 0 24 24" fill="none" xmlns="http://www.w3.org/2000/svg">
<g clip-path="url(#clip0_372_3381)">
<path d="M10.232 10.2309C11.1391 9.32386 12.3602 8.80016 13.6426 8.76815C14.925 8.73613 16.1707 9.19826 17.122 10.0589L17.303 10.2309L20.131 13.0599C21.052 13.9826 21.5763 15.2285 21.592 16.5321C21.6077 17.8357 21.1136 19.0939 20.215 20.0385C19.3165 20.9831 18.0845 21.5393 16.7818 21.5887C15.479 21.6381 14.2085 21.1768 13.241 20.3029L13.061 20.1309L10.939 18.0089C10.7596 17.829 10.6555 17.5875 10.6478 17.3335C10.64 17.0796 10.7292 16.8322 10.8972 16.6417C11.0653 16.4511 11.2995 16.3316 11.5525 16.3075C11.8054 16.2834 12.058 16.3565 12.259 16.5119L12.353 16.5949L14.475 18.7169C15.0251 19.2702 15.769 19.5874 16.5491 19.6013C17.3292 19.6152 18.084 19.3246 18.6534 18.7913C19.2228 18.2579 19.562 17.5237 19.5991 16.7444C19.6362 15.9651 19.3682 15.202 18.852 14.6169L18.717 14.4739L15.889 11.6459C15.6104 11.3673 15.2797 11.1463 14.9157 10.9955C14.5516 10.8447 14.1615 10.7671 13.7675 10.7671C13.3735 10.7671 12.9833 10.8447 12.6193 10.9955C12.2553 11.1463 11.9246 11.3673 11.646 11.6459C11.4583 11.8334 11.2039 11.9387 10.9386 11.9386C10.6734 11.9385 10.419 11.8331 10.2315 11.6454C10.044 11.4578 9.93869 11.2033 9.93878 10.9381C9.93888 10.6728 10.0443 10.4184 10.232 10.2309ZM3.86799 3.86693C4.77512 2.95986 5.99618 2.43616 7.27861 2.40415C8.56105 2.37213 9.80673 2.83426 10.758 3.69493L10.939 3.86693L13.06 5.98993C13.2393 6.16989 13.3435 6.41137 13.3512 6.66532C13.359 6.91927 13.2698 7.16665 13.1017 7.35721C12.9337 7.54778 12.6994 7.66724 12.4465 7.69133C12.1936 7.71542 11.941 7.64234 11.74 7.48693L11.646 7.40393L9.52498 5.28293C8.97395 4.73549 8.23207 4.42311 7.45542 4.41151C6.67877 4.3999 5.92789 4.68998 5.36075 5.22072C4.79361 5.75146 4.45443 6.48147 4.41456 7.25719C4.37469 8.03291 4.63725 8.79385 5.14698 9.37993L5.28199 9.52393L8.11098 12.3529C8.67357 12.9153 9.43649 13.2313 10.232 13.2313C11.0275 13.2313 11.7904 12.9153 12.353 12.3529C12.4458 12.26 12.5561 12.1863 12.6774 12.136C12.7987 12.0857 12.9288 12.0598 13.0601 12.0597C13.1915 12.0597 13.3216 12.0855 13.4429 12.1357C13.5643 12.186 13.6746 12.2596 13.7675 12.3524C13.8604 12.4453 13.9341 12.5555 13.9844 12.6768C14.0347 12.7982 14.0606 12.9282 14.0607 13.0596C14.0607 13.1909 14.0349 13.321 13.9847 13.4424C13.9345 13.5637 13.8608 13.674 13.768 13.7669C12.8609 14.674 11.6398 15.1977 10.3574 15.2297C9.07492 15.2617 7.82925 14.7996 6.87799 13.9389L6.69598 13.7669L3.86799 10.9379C2.93063 10.0003 2.40405 8.72875 2.40405 7.40293C2.40405 6.07711 2.93063 4.80457 3.86799 3.86693Z" fill="#929292"/>
</g>
<defs>
<clipPath id="clip0_372_3381">
<rect width="24" height="24" fill="white"/>
</clipPath>
</defs>
</svg>
