<svg width="8" height="11" viewBox="0 0 8 11" fill="none" xmlns="http://www.w3.org/2000/svg">
<path d="M4 2.57143C4.37888 2.57143 4.74224 2.72194 5.01015 2.98985C5.27806 3.25776 5.42857 3.62112 5.42857 4C5.42857 4.1876 5.39162 4.37337 5.31983 4.54669C5.24804 4.72001 5.14281 4.8775 5.01015 5.01015C4.8775 5.14281 4.72001 5.24803 4.54669 5.31983C4.37337 5.39162 4.1876 5.42857 4 5.42857C3.62112 5.42857 3.25776 5.27806 2.98985 5.01015C2.72194 4.74224 2.57143 4.37888 2.57143 4C2.57143 3.62112 2.72194 3.25776 2.98985 2.98985C3.25776 2.72194 3.62112 2.57143 4 2.57143ZM4 0C5.06087 0 6.07828 0.421427 6.82843 1.17157C7.57857 1.92172 8 2.93913 8 4C8 6.19401 5.86058 9.1521 4.71102 10.5832C4.34003 11.045 3.65997 11.045 3.28898 10.5832C2.13942 9.1521 0 6.19401 0 4C0 2.93913 0.421427 1.92172 1.17157 1.17157C1.92172 0.421427 2.93913 0 4 0ZM4 1.14286C3.24224 1.14286 2.51551 1.44388 1.97969 1.97969C1.44388 2.51551 1.14286 3.24224 1.14286 4C1.14286 4.51326 1.14286 5.48752 3.21325 8.45903C3.59585 9.00815 4.40415 9.00815 4.78675 8.45903C6.85714 5.48752 6.85714 4.51326 6.85714 4C6.85714 3.24224 6.55612 2.51551 6.02031 1.97969C5.48449 1.44388 4.75776 1.14286 4 1.14286Z" fill="#929292"/>
</svg>
