<svg width="287" height="39" viewBox="0 0 287 39" fill="none" xmlns="http://www.w3.org/2000/svg">
<rect x="0.5" y="0.5" width="286" height="38" rx="9.5" fill="#F1F1F1"/>
<rect x="0.5" y="0.5" width="286" height="38" rx="9.5" stroke="#C4C4C4"/>
<path d="M101.49 12.3281V26.3594H100.005V12.3281H101.49ZM92.1616 13.5V17.0938H95.9272V13.5H97.3959V23H90.6772V13.5H92.1616ZM92.1616 21.7812H95.9272V18.2656H92.1616V21.7812ZM115.622 12.3281V26.3281H114.138V12.3281H115.622ZM104.122 22.5156C105.271 22.5078 106.591 22.5 107.966 22.4531V21.0625C106.325 20.8516 105.263 19.8906 105.278 18.5156C105.263 16.9375 106.638 15.8906 108.669 15.8906C110.716 15.8906 112.122 16.9375 112.122 18.5156C112.122 19.875 111.06 20.8281 109.435 21.0469V22.4062C110.732 22.3516 112.044 22.25 113.278 22.0938L113.388 23.2031C110.278 23.7188 106.888 23.75 104.325 23.75L104.122 22.5156ZM112.966 14V15.1875H104.419V14H107.966V12.3594H109.45V14H112.966ZM108.669 17.0469C107.497 17.0469 106.669 17.625 106.685 18.5156C106.669 19.4062 107.497 19.9531 108.669 19.9531C109.872 19.9531 110.7 19.4062 110.7 18.5156C110.7 17.625 109.872 17.0469 108.669 17.0469ZM129.833 12.3438V22.9531H128.348V21.6094H125.536V20.5625H128.348V12.3438H129.833ZM130.177 24.8281V26.0312H120.067V21.9219H121.536V24.8281H130.177ZM118.13 18.7344C120.723 18.7188 124.208 18.6875 127.192 18.3125L127.286 19.375C126.091 19.5703 124.833 19.7031 123.598 19.7812V22.5156H122.114V19.8594C120.755 19.9219 119.45 19.9297 118.317 19.9219L118.13 18.7344ZM122.708 12.875C124.755 12.875 126.177 13.8594 126.177 15.3438C126.177 16.8281 124.755 17.7812 122.708 17.7812C120.63 17.7812 119.223 16.8281 119.223 15.3438C119.223 13.8594 120.63 12.875 122.708 12.875ZM122.708 13.9844C121.458 13.9688 120.614 14.5 120.63 15.3438C120.614 16.1719 121.458 16.6875 122.708 16.6875C123.911 16.6875 124.755 16.1719 124.77 15.3438C124.755 14.5 123.911 13.9688 122.708 13.9844ZM138.715 13.1719C141.653 13.1719 143.887 14.7188 143.887 17.0781C143.887 19.4375 141.653 21 138.715 20.9844C135.778 21 133.559 19.4375 133.559 17.0781C133.559 14.7188 135.778 13.1719 138.715 13.1719ZM138.715 14.375C136.575 14.3594 134.965 15.4531 134.981 17.0781C134.965 18.7188 136.575 19.7656 138.715 19.7656C140.856 19.7656 142.45 18.7188 142.45 17.0781C142.45 15.4531 140.856 14.3594 138.715 14.375ZM145.153 23.2812V24.5156H132.34V23.2812H145.153ZM159.301 23.4062V24.6562H146.488V23.4062H152.129V20.9531H148.051V16.5H156.27V14.5312H148.02V13.3125H157.738V17.6875H149.52V19.7344H158.067V20.9531H153.598V23.4062H159.301ZM170.003 15.8906C169.988 18.4531 171.535 21.0156 173.707 21.9844L172.816 23.1562C171.207 22.3906 169.933 20.8203 169.285 18.9062C168.628 20.9531 167.339 22.6484 165.66 23.4688L164.753 22.2188C166.957 21.2344 168.503 18.5625 168.503 15.8906V13.5H170.003V15.8906ZM176.457 12.3281V26.3594H174.972V12.3281H176.457ZM183.902 14.8438C183.902 16.625 185.136 18.3281 187.277 19.0469L186.527 20.2031C184.941 19.6562 183.777 18.5625 183.167 17.1875C182.558 18.7031 181.347 19.8906 179.698 20.4688L178.902 19.3125C181.089 18.5625 182.402 16.7656 182.417 14.8281V14.4531H179.339V13.25H186.917V14.4531H183.902V14.8438ZM190.011 12.3281V15.9219H192.042V17.1719H190.011V20.7656H188.527V12.3281H190.011ZM190.011 21.4531V26.3281H188.527V22.6562H180.761V21.4531H190.011ZM204.065 12.3281V18H206.315V19.2344H204.065V26.3281H202.597V12.3281H204.065ZM201.378 14.5156V15.7344H193.081V14.5156H196.534V12.5156H198.018V14.5156H201.378ZM197.284 16.7656C199.284 16.7656 200.753 18.1094 200.768 20.0156C200.753 21.9375 199.284 23.2656 197.284 23.2812C195.268 23.2656 193.8 21.9375 193.8 20.0156C193.8 18.1094 195.268 16.7656 197.284 16.7656ZM197.284 17.9844C196.097 17.9844 195.206 18.8125 195.222 20.0156C195.206 21.2344 196.097 22.0469 197.284 22.0312C198.472 22.0469 199.347 21.2344 199.347 20.0156C199.347 18.8125 198.472 17.9844 197.284 17.9844ZM218.948 12.3281V26.3281H217.448V12.3281H218.948ZM214.776 13.8281C214.776 17.9219 213.026 21.4844 208.229 23.7812L207.448 22.5781C211.174 20.8047 212.987 18.2812 213.276 15.0156H208.12V13.8281H214.776Z" fill="#929292"/>
<path d="M47 28V26C47 24.9391 46.5786 23.9217 45.8284 23.1716C45.0783 22.4214 44.0609 22 43 22H35C33.9391 22 32.9217 22.4214 32.1716 23.1716C31.4214 23.9217 31 24.9391 31 26V28" stroke="#929292" stroke-width="2" stroke-linecap="round" stroke-linejoin="round"/>
<path d="M39 18C41.2091 18 43 16.2091 43 14C43 11.7909 41.2091 10 39 10C36.7909 10 35 11.7909 35 14C35 16.2091 36.7909 18 39 18Z" stroke="#929292" stroke-width="2" stroke-linecap="round" stroke-linejoin="round"/>
</svg>
