<svg width="39" height="39" viewBox="0 0 39 39" fill="none" xmlns="http://www.w3.org/2000/svg">
<path d="M28.5819 30.7458L25.7345 17.774L31.2712 12.2373C33.6441 9.86439 34.435 6.70055 33.6441 5.11863C32.0622 4.32767 28.8983 5.11863 26.5254 7.49151L20.9887 13.0282L8.01695 10.1808C7.22599 10.0226 6.59322 10.339 6.27684 10.9717L5.80226 11.7627C5.48588 12.5537 5.64407 13.3446 6.27684 13.8192L14.661 19.3559L11.4972 24.1017H6.75142L5.16949 25.6836L9.91526 28.8474L13.0791 33.5932L14.661 32.0113V27.2655L19.4068 24.1017L24.9435 32.4859C25.4181 33.1186 26.209 33.2768 27 32.9604L27.791 32.6441C28.4237 32.1695 28.7401 31.5367 28.5819 30.7458Z" stroke="#7FB185" stroke-width="3" stroke-linecap="round" stroke-linejoin="round"/>
</svg>
