<svg width="32" height="32" viewBox="0 0 32 32" fill="none" xmlns="http://www.w3.org/2000/svg">
<path d="M12.6667 4C14.9652 4 17.1696 4.91309 18.7949 6.53841C20.4202 8.16372 21.3333 10.3681 21.3333 12.6667C21.3333 14.6874 20.6362 16.5546 19.4756 18.0346C19.3532 18.1907 19.3615 18.4148 19.5018 18.5551C19.5732 18.6265 19.6701 18.6667 19.7711 18.6667H20.2525C20.5177 18.6667 20.772 18.772 20.9596 18.9596L26.6262 24.6262C27.0168 25.0168 27.0168 25.6499 26.6262 26.0404L26.0404 26.6262C25.6499 27.0168 25.0168 27.0168 24.6262 26.6262L18.9596 20.9596C18.772 20.772 18.6667 20.5177 18.6667 20.2525V19.7711C18.6667 19.6701 18.6265 19.5732 18.5551 19.5018C18.4148 19.3615 18.1907 19.3532 18.0346 19.4756C16.5546 20.6362 14.6874 21.3333 12.6667 21.3333C10.3681 21.3333 8.16372 20.4202 6.53841 18.7949C4.91309 17.1696 4 14.9652 4 12.6667C4 10.3681 4.91309 8.16372 6.53841 6.53841C8.16372 4.91309 10.3681 4 12.6667 4ZM12.6667 6.66667C9.33333 6.66667 6.66667 9.33333 6.66667 12.6667C6.66667 16 9.33333 18.6667 12.6667 18.6667C16 18.6667 18.6667 16 18.6667 12.6667C18.6667 9.33333 16 6.66667 12.6667 6.66667Z" fill="#7FB185"/>
</svg>
