<svg width="21" height="20" viewBox="0 0 21 20" fill="none" xmlns="http://www.w3.org/2000/svg">
<path d="M12.3192 1.25C12.4582 1.25 12.5935 1.292 12.7058 1.36995C12.8181 1.4479 12.9015 1.55778 12.944 1.68375L13.6659 3.82C13.969 3.96125 14.2591 4.12 14.536 4.29875L16.8408 3.82625C16.9767 3.79862 17.1183 3.81278 17.2452 3.86669C17.3721 3.92061 17.4777 4.01149 17.5469 4.12625L19.3661 7.125C19.4355 7.2397 19.4649 7.37244 19.4501 7.50409C19.4352 7.63574 19.3768 7.75949 19.2834 7.8575L17.7018 9.52C17.7248 9.83879 17.7248 10.1587 17.7018 10.4775L19.2834 12.1425C19.3768 12.2405 19.4352 12.3643 19.4501 12.4959C19.4649 12.6276 19.4355 12.7603 19.3661 12.875L17.5469 15.875C17.4775 15.9895 17.3718 16.0802 17.2449 16.1338C17.118 16.1875 16.9765 16.2015 16.8408 16.1737L14.536 15.7013C14.2604 15.8787 13.969 16.0388 13.6672 16.18L12.944 18.3162C12.9015 18.4422 12.8181 18.5521 12.7058 18.63C12.5935 18.708 12.4582 18.75 12.3192 18.75H8.68099C8.54205 18.75 8.4067 18.708 8.29442 18.63C8.18215 18.5521 8.09875 18.4422 8.05624 18.3162L7.33567 16.1812C7.03331 16.0404 6.74166 15.8796 6.46286 15.7L4.15942 16.1737C4.02353 16.2014 3.88194 16.1872 3.75504 16.1333C3.62815 16.0794 3.52249 15.9885 3.4533 15.8738L1.63417 12.875C1.56471 12.7603 1.53529 12.6276 1.55015 12.4959C1.56501 12.3643 1.62339 12.2405 1.71686 12.1425L3.29842 10.4775C3.27551 10.1595 3.27551 9.84046 3.29842 9.5225L1.71686 7.8575C1.62339 7.75949 1.56501 7.63574 1.55015 7.50409C1.53529 7.37244 1.56471 7.2397 1.63417 7.125L3.4533 4.125C3.52268 4.01047 3.62842 3.91984 3.7553 3.86616C3.88218 3.81248 4.02368 3.79851 4.15942 3.82625L6.46286 4.3C6.74111 4.12125 7.03249 3.96 7.33567 3.81875L8.05755 1.68375C8.09993 1.55818 8.18293 1.4486 8.29467 1.37069C8.40642 1.29278 8.54118 1.25053 8.67967 1.25H12.3179H12.3192ZM11.8389 2.5H9.16136L8.41586 4.70875L7.91317 4.9425C7.66605 5.05767 7.42749 5.18881 7.19917 5.335L6.73455 5.635L4.35105 5.145L3.0123 7.355L4.64636 9.0775L4.60699 9.6075C4.58812 9.86886 4.58812 10.1311 4.60699 10.3925L4.64636 10.9225L3.00967 12.645L4.34974 14.855L6.73324 14.3663L7.19786 14.665C7.42618 14.8112 7.66474 14.9423 7.91186 15.0575L8.41455 15.2913L9.16136 17.5H11.8415L12.5896 15.29L13.091 15.0575C13.3378 14.9426 13.576 14.8115 13.8037 14.665L14.267 14.3663L16.6518 14.855L17.9905 12.645L16.3552 10.9225L16.3946 10.3925C16.4135 10.1307 16.4135 9.86802 16.3946 9.60625L16.3552 9.07625L17.9919 7.355L16.6518 5.145L14.267 5.6325L13.8037 5.335C13.576 5.18854 13.3378 5.05739 13.091 4.9425L12.5896 4.71L11.8402 2.5H11.8389ZM10.5001 6.25C11.5444 6.25 12.5459 6.64509 13.2843 7.34835C14.0228 8.05161 14.4376 9.00544 14.4376 10C14.4376 10.9946 14.0228 11.9484 13.2843 12.6517C12.5459 13.3549 11.5444 13.75 10.5001 13.75C9.45582 13.75 8.4543 13.3549 7.71588 12.6517C6.97745 11.9484 6.56261 10.9946 6.56261 10C6.56261 9.00544 6.97745 8.05161 7.71588 7.34835C8.4543 6.64509 9.45582 6.25 10.5001 6.25ZM10.5001 7.5C9.80392 7.5 9.13624 7.76339 8.64396 8.23223C8.15167 8.70107 7.87511 9.33696 7.87511 10C7.87511 10.663 8.15167 11.2989 8.64396 11.7678C9.13624 12.2366 9.80392 12.5 10.5001 12.5C11.1963 12.5 11.864 12.2366 12.3563 11.7678C12.8485 11.2989 13.1251 10.663 13.1251 10C13.1251 9.33696 12.8485 8.70107 12.3563 8.23223C11.864 7.76339 11.1963 7.5 10.5001 7.5Z" fill="#6D6875"/>
</svg>
