<svg width="18" height="20" viewBox="0 0 18 20" fill="none" xmlns="http://www.w3.org/2000/svg">
<path d="M15 14.1249C14.24 14.1249 13.56 14.4249 13.04 14.8949L5.91 10.7449C5.96 10.5149 6 10.2849 6 10.0449C6 9.80492 5.96 9.57492 5.91 9.34492L12.96 5.23492C13.5 5.73492 14.21 6.04492 15 6.04492C16.66 6.04492 18 4.70492 18 3.04492C18 1.38492 16.66 0.0449219 15 0.0449219C13.34 0.0449219 12 1.38492 12 3.04492C12 3.28492 12.04 3.51492 12.09 3.74492L5.04 7.85492C4.5 7.35492 3.79 7.04492 3 7.04492C1.34 7.04492 0 8.38492 0 10.0449C0 11.7049 1.34 13.0449 3 13.0449C3.79 13.0449 4.5 12.7349 5.04 12.2349L12.16 16.3849C12.11 16.5949 12.08 16.8149 12.08 17.0449C12.08 18.6549 13.39 19.9549 15 19.9549C16.61 19.9549 17.92 18.6549 17.92 17.0449C17.92 15.4349 16.61 14.1249 15 14.1249ZM15 2.04492C15.55 2.04492 16 2.49492 16 3.04492C16 3.59492 15.55 4.04492 15 4.04492C14.45 4.04492 14 3.59492 14 3.04492C14 2.49492 14.45 2.04492 15 2.04492ZM3 11.0449C2.45 11.0449 2 10.5949 2 10.0449C2 9.49492 2.45 9.04492 3 9.04492C3.55 9.04492 4 9.49492 4 10.0449C4 10.5949 3.55 11.0449 3 11.0449ZM15 18.0449C14.45 18.0449 14 17.5949 14 17.0449C14 16.4949 14.45 16.0449 15 16.0449C15.55 16.0449 16 16.4949 16 17.0449C16 17.5949 15.55 18.0449 15 18.0449Z" fill="#434343"/>
</svg>
