<svg width="16" height="16" viewBox="0 0 16 16" fill="none" xmlns="http://www.w3.org/2000/svg">
<path d="M14.2222 0H1.77778C1.30628 0 0.854097 0.187301 0.520699 0.520699C0.187301 0.854097 0 1.30628 0 1.77778V14.2222C0 15.2089 0.8 16 1.77778 16H14.2222C15.2089 16 16 15.2089 16 14.2222V1.77778C16 1.30628 15.8127 0.854097 15.4793 0.520699C15.1459 0.187301 14.6937 0 14.2222 0ZM14.2222 13.2222C14.2222 13.7745 13.7745 14.2222 13.2222 14.2222H2.77778C2.22549 14.2222 1.77778 13.7745 1.77778 13.2222V2.77778C1.77778 2.22549 2.22549 1.77778 2.77778 1.77778H13.2222C13.7745 1.77778 14.2222 2.22549 14.2222 2.77778V13.2222ZM5.33556 12.7089C4.98614 12.3619 4.98514 11.7971 5.33334 11.4489L8.07512 8.70711C8.46564 8.31658 8.46564 7.68342 8.07512 7.29289L5.33334 4.55112C4.98514 4.20292 4.98614 3.63808 5.33556 3.29112C5.68324 2.94589 6.24466 2.94688 6.59111 3.29334L10.5907 7.29289C10.9812 7.68342 10.9812 8.31658 10.5907 8.70711L6.59112 12.7067C6.24466 13.0531 5.68324 13.0541 5.33556 12.7089Z" fill="#C4C4C4"/>
</svg>
