<svg width="12" height="7" viewBox="0 0 12 7" fill="none" xmlns="http://www.w3.org/2000/svg">
<path d="M11.4 1.2H0.6C0.44087 1.2 0.288258 1.13679 0.175736 1.02426C0.0632141 0.911742 0 0.75913 0 0.6C0 0.44087 0.0632141 0.288258 0.175736 0.175736C0.288258 0.063214 0.44087 0 0.6 0H11.4C11.5591 0 11.7117 0.063214 11.8243 0.175736C11.9368 0.288258 12 0.44087 12 0.6C12 0.75913 11.9368 0.911742 11.8243 1.02426C11.7117 1.13679 11.5591 1.2 11.4 1.2ZM9.4 4H2.6C2.44087 4 2.28826 3.93679 2.17574 3.82426C2.06321 3.71174 2 3.55913 2 3.4C2 3.24087 2.06321 3.08826 2.17574 2.97574C2.28826 2.86321 2.44087 2.8 2.6 2.8H9.4C9.55913 2.8 9.71174 2.86321 9.82426 2.97574C9.93679 3.08826 10 3.24087 10 3.4C10 3.55913 9.93679 3.71174 9.82426 3.82426C9.71174 3.93679 9.55913 4 9.4 4ZM7 6.8H5C4.84087 6.8 4.68826 6.73679 4.57574 6.62426C4.46321 6.51174 4.4 6.35913 4.4 6.2C4.4 6.04087 4.46321 5.88826 4.57574 5.77574C4.68826 5.66321 4.84087 5.6 5 5.6H7C7.15913 5.6 7.31174 5.66321 7.42426 5.77574C7.53679 5.88826 7.6 6.04087 7.6 6.2C7.6 6.35913 7.53679 6.51174 7.42426 6.62426C7.31174 6.73679 7.15913 6.8 7 6.8Z" fill="#929292"/>
</svg>
