<svg width="39" height="39" viewBox="0 0 39 39" fill="none" xmlns="http://www.w3.org/2000/svg">
<path d="M19.4063 3.53668C17.7281 3.53668 16.1187 4.20335 14.932 5.39002C13.7453 6.57669 13.0787 8.18616 13.0787 9.86436C13.0787 11.5426 13.7453 13.152 14.932 14.3387C16.1187 15.5254 17.7281 16.192 19.4063 16.192C21.0846 16.192 22.694 15.5254 23.8807 14.3387C25.0674 13.152 25.734 11.5426 25.734 9.86436C25.734 8.18616 25.0674 6.57669 23.8807 5.39002C22.694 4.20335 21.0846 3.53668 19.4063 3.53668ZM16.2425 9.86436C16.2425 9.02526 16.5758 8.22053 17.1692 7.62719C17.7625 7.03386 18.5672 6.70052 19.4063 6.70052C20.2454 6.70052 21.0502 7.03386 21.6435 7.62719C22.2369 8.22053 22.5702 9.02526 22.5702 9.86436C22.5702 10.7035 22.2369 11.5082 21.6435 12.1015C21.0502 12.6949 20.2454 13.0282 19.4063 13.0282C18.5672 13.0282 17.7625 12.6949 17.1692 12.1015C16.5758 11.5082 16.2425 10.7035 16.2425 9.86436ZM27.3159 19.3559H11.4967C10.2381 19.3559 9.03098 19.8559 8.14098 20.7459C7.25098 21.6359 6.75098 22.843 6.75098 24.1017C6.75098 27.6325 8.20318 30.461 10.5856 32.3751C12.93 34.2576 16.0748 35.1751 19.4063 35.1751C22.7379 35.1751 25.8827 34.2576 28.2271 32.3751C30.6063 30.461 32.0617 27.6325 32.0617 24.1017C32.0617 22.843 31.5617 21.6359 30.6717 20.7459C29.7817 19.8559 28.5746 19.3559 27.3159 19.3559ZM11.4967 22.5197H27.3159C27.7355 22.5197 28.1379 22.6864 28.4345 22.9831C28.7312 23.2797 28.8979 23.6821 28.8979 24.1017C28.8979 26.6865 27.8696 28.6038 26.2466 29.9073C24.5824 31.2424 22.1905 32.0113 19.4063 32.0113C16.6222 32.0113 14.2303 31.2424 12.5661 29.9073C10.9431 28.6038 9.91482 26.6865 9.91482 24.1017C9.91482 23.6821 10.0815 23.2797 10.3782 22.9831C10.6748 22.6864 11.0772 22.5197 11.4967 22.5197Z" fill="#7FB185"/>
</svg>
